<mxfile host="app.diagrams.net" modified="2021-05-06T02:01:55.276Z" agent="5.0 (Windows NT 10.0; Win64; x64) AppleWebKit/537.36 (KHTML, like Gecko) Chrome/90.0.4430.93 Safari/537.36" etag="CuvQtPjKYHUpN7Y4qSKb" version="14.4.8" type="github">
  <diagram id="C5RBs43oDa-KdzZeNtuy" name="Page-1">
    <mxGraphModel dx="460" dy="1961" grid="1" gridSize="10" guides="1" tooltips="1" connect="1" arrows="1" fold="1" page="1" pageScale="1" pageWidth="827" pageHeight="1169" math="0" shadow="0">
      <root>
        <mxCell id="WIyWlLk6GJQsqaUBKTNV-0" />
        <mxCell id="WIyWlLk6GJQsqaUBKTNV-1" parent="WIyWlLk6GJQsqaUBKTNV-0" />
        <mxCell id="gTodDrxoHiJsAfmO-YfP-30" value="" style="edgeStyle=orthogonalEdgeStyle;rounded=0;orthogonalLoop=1;jettySize=auto;html=1;" edge="1" parent="WIyWlLk6GJQsqaUBKTNV-1" source="gTodDrxoHiJsAfmO-YfP-0" target="gTodDrxoHiJsAfmO-YfP-7">
          <mxGeometry relative="1" as="geometry" />
        </mxCell>
        <mxCell id="gTodDrxoHiJsAfmO-YfP-0" value="登录" style="rounded=1;whiteSpace=wrap;html=1;" vertex="1" parent="WIyWlLk6GJQsqaUBKTNV-1">
          <mxGeometry x="10" y="760" width="120" height="60" as="geometry" />
        </mxCell>
        <mxCell id="gTodDrxoHiJsAfmO-YfP-1" value="首页" style="rounded=1;whiteSpace=wrap;html=1;" vertex="1" parent="WIyWlLk6GJQsqaUBKTNV-1">
          <mxGeometry x="780" y="760" width="120" height="60" as="geometry" />
        </mxCell>
        <mxCell id="gTodDrxoHiJsAfmO-YfP-2" value="兼职板块" style="rounded=0;whiteSpace=wrap;html=1;" vertex="1" parent="WIyWlLk6GJQsqaUBKTNV-1">
          <mxGeometry x="780" y="400" width="120" height="60" as="geometry" />
        </mxCell>
        <mxCell id="gTodDrxoHiJsAfmO-YfP-3" value="经验问答板块" style="rounded=0;whiteSpace=wrap;html=1;" vertex="1" parent="WIyWlLk6GJQsqaUBKTNV-1">
          <mxGeometry x="780" y="20" width="120" height="60" as="geometry" />
        </mxCell>
        <mxCell id="gTodDrxoHiJsAfmO-YfP-4" value="新闻排行榜" style="rounded=1;whiteSpace=wrap;html=1;" vertex="1" parent="WIyWlLk6GJQsqaUBKTNV-1">
          <mxGeometry x="780" y="1120" width="120" height="60" as="geometry" />
        </mxCell>
        <mxCell id="gTodDrxoHiJsAfmO-YfP-31" value="" style="edgeStyle=orthogonalEdgeStyle;rounded=0;orthogonalLoop=1;jettySize=auto;html=1;" edge="1" parent="WIyWlLk6GJQsqaUBKTNV-1" source="gTodDrxoHiJsAfmO-YfP-7" target="gTodDrxoHiJsAfmO-YfP-29">
          <mxGeometry relative="1" as="geometry" />
        </mxCell>
        <mxCell id="gTodDrxoHiJsAfmO-YfP-34" value="" style="edgeStyle=orthogonalEdgeStyle;rounded=0;orthogonalLoop=1;jettySize=auto;html=1;" edge="1" parent="WIyWlLk6GJQsqaUBKTNV-1" source="gTodDrxoHiJsAfmO-YfP-7" target="gTodDrxoHiJsAfmO-YfP-23">
          <mxGeometry relative="1" as="geometry" />
        </mxCell>
        <mxCell id="gTodDrxoHiJsAfmO-YfP-7" value="是否登录" style="rhombus;whiteSpace=wrap;html=1;" vertex="1" parent="WIyWlLk6GJQsqaUBKTNV-1">
          <mxGeometry x="205" y="750" width="110" height="80" as="geometry" />
        </mxCell>
        <mxCell id="gTodDrxoHiJsAfmO-YfP-8" value="提问" style="rounded=1;whiteSpace=wrap;html=1;" vertex="1" parent="WIyWlLk6GJQsqaUBKTNV-1">
          <mxGeometry x="1130" y="-180" width="120" height="60" as="geometry" />
        </mxCell>
        <mxCell id="gTodDrxoHiJsAfmO-YfP-9" value="评论" style="rounded=1;whiteSpace=wrap;html=1;" vertex="1" parent="WIyWlLk6GJQsqaUBKTNV-1">
          <mxGeometry x="1130" y="-80" width="120" height="60" as="geometry" />
        </mxCell>
        <mxCell id="gTodDrxoHiJsAfmO-YfP-11" value="点赞" style="rounded=1;whiteSpace=wrap;html=1;" vertex="1" parent="WIyWlLk6GJQsqaUBKTNV-1">
          <mxGeometry x="1130" width="120" height="60" as="geometry" />
        </mxCell>
        <mxCell id="gTodDrxoHiJsAfmO-YfP-12" value="转发" style="rounded=1;whiteSpace=wrap;html=1;" vertex="1" parent="WIyWlLk6GJQsqaUBKTNV-1">
          <mxGeometry x="1130" y="80" width="120" height="60" as="geometry" />
        </mxCell>
        <mxCell id="gTodDrxoHiJsAfmO-YfP-13" value="发布兼职" style="rounded=1;whiteSpace=wrap;html=1;" vertex="1" parent="WIyWlLk6GJQsqaUBKTNV-1">
          <mxGeometry x="1130" y="300" width="120" height="60" as="geometry" />
        </mxCell>
        <mxCell id="gTodDrxoHiJsAfmO-YfP-14" value="查看兼职详情页" style="rounded=1;whiteSpace=wrap;html=1;" vertex="1" parent="WIyWlLk6GJQsqaUBKTNV-1">
          <mxGeometry x="1130" y="390" width="120" height="60" as="geometry" />
        </mxCell>
        <mxCell id="gTodDrxoHiJsAfmO-YfP-15" value="兼职分类" style="rounded=1;whiteSpace=wrap;html=1;" vertex="1" parent="WIyWlLk6GJQsqaUBKTNV-1">
          <mxGeometry x="1130" y="480" width="120" height="60" as="geometry" />
        </mxCell>
        <mxCell id="gTodDrxoHiJsAfmO-YfP-16" value="轮播图" style="rounded=1;whiteSpace=wrap;html=1;" vertex="1" parent="WIyWlLk6GJQsqaUBKTNV-1">
          <mxGeometry x="1130" y="680" width="120" height="60" as="geometry" />
        </mxCell>
        <mxCell id="gTodDrxoHiJsAfmO-YfP-17" value="每日一句" style="rounded=1;whiteSpace=wrap;html=1;" vertex="1" parent="WIyWlLk6GJQsqaUBKTNV-1">
          <mxGeometry x="1130" y="750" width="120" height="60" as="geometry" />
        </mxCell>
        <mxCell id="gTodDrxoHiJsAfmO-YfP-18" value="每日一图" style="rounded=1;whiteSpace=wrap;html=1;" vertex="1" parent="WIyWlLk6GJQsqaUBKTNV-1">
          <mxGeometry x="1130" y="820" width="120" height="60" as="geometry" />
        </mxCell>
        <mxCell id="gTodDrxoHiJsAfmO-YfP-20" value="it资讯" style="rounded=1;whiteSpace=wrap;html=1;" vertex="1" parent="WIyWlLk6GJQsqaUBKTNV-1">
          <mxGeometry x="1130" y="1190" width="120" height="60" as="geometry" />
        </mxCell>
        <mxCell id="gTodDrxoHiJsAfmO-YfP-21" value="知乎日报" style="rounded=1;whiteSpace=wrap;html=1;" vertex="1" parent="WIyWlLk6GJQsqaUBKTNV-1">
          <mxGeometry x="1130" y="1050" width="120" height="60" as="geometry" />
        </mxCell>
        <mxCell id="gTodDrxoHiJsAfmO-YfP-22" value="微博排行榜" style="rounded=1;whiteSpace=wrap;html=1;" vertex="1" parent="WIyWlLk6GJQsqaUBKTNV-1">
          <mxGeometry x="1130" y="1119" width="120" height="60" as="geometry" />
        </mxCell>
        <mxCell id="gTodDrxoHiJsAfmO-YfP-23" value="注册" style="rounded=1;whiteSpace=wrap;html=1;" vertex="1" parent="WIyWlLk6GJQsqaUBKTNV-1">
          <mxGeometry x="200" y="920" width="120" height="60" as="geometry" />
        </mxCell>
        <mxCell id="gTodDrxoHiJsAfmO-YfP-24" value="社团管理" style="rounded=1;whiteSpace=wrap;html=1;" vertex="1" parent="WIyWlLk6GJQsqaUBKTNV-1">
          <mxGeometry x="780" y="1500" width="120" height="60" as="geometry" />
        </mxCell>
        <mxCell id="gTodDrxoHiJsAfmO-YfP-25" value="社团介绍" style="rounded=1;whiteSpace=wrap;html=1;" vertex="1" parent="WIyWlLk6GJQsqaUBKTNV-1">
          <mxGeometry x="1130" y="1460" width="120" height="60" as="geometry" />
        </mxCell>
        <mxCell id="gTodDrxoHiJsAfmO-YfP-26" value="社团活动" style="rounded=1;whiteSpace=wrap;html=1;" vertex="1" parent="WIyWlLk6GJQsqaUBKTNV-1">
          <mxGeometry x="1130" y="1540" width="120" height="60" as="geometry" />
        </mxCell>
        <mxCell id="gTodDrxoHiJsAfmO-YfP-27" value="导航栏" style="rounded=1;whiteSpace=wrap;html=1;" vertex="1" parent="WIyWlLk6GJQsqaUBKTNV-1">
          <mxGeometry x="1130" y="1380" width="120" height="60" as="geometry" />
        </mxCell>
        <mxCell id="gTodDrxoHiJsAfmO-YfP-28" value="社团公告" style="rounded=1;whiteSpace=wrap;html=1;" vertex="1" parent="WIyWlLk6GJQsqaUBKTNV-1">
          <mxGeometry x="1130" y="1620" width="120" height="60" as="geometry" />
        </mxCell>
        <mxCell id="gTodDrxoHiJsAfmO-YfP-50" style="edgeStyle=orthogonalEdgeStyle;rounded=0;orthogonalLoop=1;jettySize=auto;html=1;exitX=0.5;exitY=1;exitDx=0;exitDy=0;entryX=1;entryY=0.5;entryDx=0;entryDy=0;" edge="1" parent="WIyWlLk6GJQsqaUBKTNV-1" source="gTodDrxoHiJsAfmO-YfP-29" target="gTodDrxoHiJsAfmO-YfP-23">
          <mxGeometry relative="1" as="geometry" />
        </mxCell>
        <mxCell id="gTodDrxoHiJsAfmO-YfP-54" value="" style="edgeStyle=orthogonalEdgeStyle;rounded=0;orthogonalLoop=1;jettySize=auto;html=1;" edge="1" parent="WIyWlLk6GJQsqaUBKTNV-1" source="gTodDrxoHiJsAfmO-YfP-29" target="gTodDrxoHiJsAfmO-YfP-52">
          <mxGeometry relative="1" as="geometry" />
        </mxCell>
        <mxCell id="gTodDrxoHiJsAfmO-YfP-56" style="edgeStyle=orthogonalEdgeStyle;rounded=0;orthogonalLoop=1;jettySize=auto;html=1;exitX=0.5;exitY=1;exitDx=0;exitDy=0;entryX=0.5;entryY=0;entryDx=0;entryDy=0;" edge="1" parent="WIyWlLk6GJQsqaUBKTNV-1" source="gTodDrxoHiJsAfmO-YfP-29" target="gTodDrxoHiJsAfmO-YfP-53">
          <mxGeometry relative="1" as="geometry" />
        </mxCell>
        <mxCell id="gTodDrxoHiJsAfmO-YfP-29" value="密码是否正确，账号是否存在" style="rhombus;whiteSpace=wrap;html=1;" vertex="1" parent="WIyWlLk6GJQsqaUBKTNV-1">
          <mxGeometry x="350" y="750" width="190" height="80" as="geometry" />
        </mxCell>
        <mxCell id="gTodDrxoHiJsAfmO-YfP-33" value="是" style="text;html=1;align=center;verticalAlign=middle;resizable=0;points=[];autosize=1;" vertex="1" parent="WIyWlLk6GJQsqaUBKTNV-1">
          <mxGeometry x="325" y="770" width="30" height="20" as="geometry" />
        </mxCell>
        <mxCell id="gTodDrxoHiJsAfmO-YfP-35" value="否" style="text;html=1;align=center;verticalAlign=middle;resizable=0;points=[];autosize=1;" vertex="1" parent="WIyWlLk6GJQsqaUBKTNV-1">
          <mxGeometry x="255" y="860" width="30" height="20" as="geometry" />
        </mxCell>
        <mxCell id="gTodDrxoHiJsAfmO-YfP-41" value="" style="line;strokeWidth=2;html=1;" vertex="1" parent="WIyWlLk6GJQsqaUBKTNV-1">
          <mxGeometry x="650" y="785" width="130" height="10" as="geometry" />
        </mxCell>
        <mxCell id="gTodDrxoHiJsAfmO-YfP-43" value="" style="line;strokeWidth=2;html=1;" vertex="1" parent="WIyWlLk6GJQsqaUBKTNV-1">
          <mxGeometry x="650" y="425" width="130" height="10" as="geometry" />
        </mxCell>
        <mxCell id="gTodDrxoHiJsAfmO-YfP-44" value="" style="line;strokeWidth=2;html=1;" vertex="1" parent="WIyWlLk6GJQsqaUBKTNV-1">
          <mxGeometry x="650" y="1145" width="130" height="10" as="geometry" />
        </mxCell>
        <mxCell id="gTodDrxoHiJsAfmO-YfP-45" value="" style="line;strokeWidth=2;html=1;" vertex="1" parent="WIyWlLk6GJQsqaUBKTNV-1">
          <mxGeometry x="650" y="1525" width="130" height="10" as="geometry" />
        </mxCell>
        <mxCell id="gTodDrxoHiJsAfmO-YfP-46" value="" style="line;strokeWidth=2;html=1;" vertex="1" parent="WIyWlLk6GJQsqaUBKTNV-1">
          <mxGeometry x="650" y="45" width="130" height="10" as="geometry" />
        </mxCell>
        <mxCell id="gTodDrxoHiJsAfmO-YfP-51" value="否" style="text;html=1;align=center;verticalAlign=middle;resizable=0;points=[];autosize=1;" vertex="1" parent="WIyWlLk6GJQsqaUBKTNV-1">
          <mxGeometry x="445" y="860" width="30" height="20" as="geometry" />
        </mxCell>
        <mxCell id="gTodDrxoHiJsAfmO-YfP-52" value="已经登陆" style="rounded=1;whiteSpace=wrap;html=1;" vertex="1" parent="WIyWlLk6GJQsqaUBKTNV-1">
          <mxGeometry x="385" y="570" width="120" height="60" as="geometry" />
        </mxCell>
        <mxCell id="gTodDrxoHiJsAfmO-YfP-57" style="edgeStyle=orthogonalEdgeStyle;rounded=0;orthogonalLoop=1;jettySize=auto;html=1;exitX=0;exitY=0.5;exitDx=0;exitDy=0;" edge="1" parent="WIyWlLk6GJQsqaUBKTNV-1" source="gTodDrxoHiJsAfmO-YfP-53" target="gTodDrxoHiJsAfmO-YfP-0">
          <mxGeometry relative="1" as="geometry" />
        </mxCell>
        <mxCell id="gTodDrxoHiJsAfmO-YfP-65" value="" style="edgeStyle=orthogonalEdgeStyle;rounded=0;orthogonalLoop=1;jettySize=auto;html=1;" edge="1" parent="WIyWlLk6GJQsqaUBKTNV-1" source="gTodDrxoHiJsAfmO-YfP-53" target="gTodDrxoHiJsAfmO-YfP-63">
          <mxGeometry relative="1" as="geometry" />
        </mxCell>
        <mxCell id="gTodDrxoHiJsAfmO-YfP-53" value="游客模式" style="rounded=1;whiteSpace=wrap;html=1;" vertex="1" parent="WIyWlLk6GJQsqaUBKTNV-1">
          <mxGeometry x="385" y="1120" width="120" height="60" as="geometry" />
        </mxCell>
        <mxCell id="gTodDrxoHiJsAfmO-YfP-55" value="是" style="text;html=1;align=center;verticalAlign=middle;resizable=0;points=[];autosize=1;" vertex="1" parent="WIyWlLk6GJQsqaUBKTNV-1">
          <mxGeometry x="445" y="680" width="30" height="20" as="geometry" />
        </mxCell>
        <mxCell id="gTodDrxoHiJsAfmO-YfP-61" value="浏览" style="rounded=1;whiteSpace=wrap;html=1;" vertex="1" parent="WIyWlLk6GJQsqaUBKTNV-1">
          <mxGeometry x="1130" y="150" width="120" height="60" as="geometry" />
        </mxCell>
        <mxCell id="gTodDrxoHiJsAfmO-YfP-63" value="" style="strokeWidth=2;html=1;shape=mxgraph.flowchart.annotation_2;align=left;labelPosition=right;pointerEvents=1;" vertex="1" parent="WIyWlLk6GJQsqaUBKTNV-1">
          <mxGeometry x="640" y="60" width="10" height="1480" as="geometry" />
        </mxCell>
      </root>
    </mxGraphModel>
  </diagram>
</mxfile>
